<svg width="150" height="167" viewBox="0 0 150 167" fill="none" xmlns="http://www.w3.org/2000/svg">
<path d="M133.333 0H25C14.95 0 0 6.65833 0 25V141.667C0 160.008 14.95 166.667 25 166.667H150V150H25.1C21.25 149.9 16.6667 148.383 16.6667 141.667C16.6667 140.825 16.7417 140.075 16.8667 139.392C17.8 134.592 21.7333 133.417 25.1 133.333H150V16.6667C150 12.2464 148.244 8.00716 145.118 4.88155C141.993 1.75595 137.754 0 133.333 0ZM133.333 75L116.667 66.6667L100 75V16.6667H133.333V75Z" fill="black"/>
</svg>
